<?xml version="1.0" encoding="UTF-8"?>
<svg width="24" height="24" viewBox="0 0 24 24" fill="none" xmlns="http://www.w3.org/2000/svg">
  <path d="M20.5 14.5c.8 0 1.5-.7 1.5-1.5s-.7-1.5-1.5-1.5h-1.2c-.1-.4-.2-.8-.4-1.2l.9-.9c.6-.6.6-1.5 0-2.1s-1.5-.6-2.1 0l-.9.9c-.4-.2-.8-.3-1.2-.4V6.5c0-.8-.7-1.5-1.5-1.5s-1.5.7-1.5 1.5v1.2c-.4.1-.8.2-1.2.4l-.9-.9c-.6-.6-1.5-.6-2.1 0s-.6 1.5 0 2.1l.9.9c-.2.4-.3.8-.4 1.2H3.5c-.8 0-1.5.7-1.5 1.5s.7 1.5 1.5 1.5h1.2c.1.4.2.8.4 1.2l-.9.9c-.6.6-.6 1.5 0 2.1s1.5.6 2.1 0l.9-.9c.4.2.8.3 1.2.4v1.2c0 .8.7 1.5 1.5 1.5s1.5-.7 1.5-1.5v-1.2c.4-.1.8-.2 1.2-.4l.9.9c.6.6 1.5.6 2.1 0s.6-1.5 0-2.1l-.9-.9c.2-.4.3-.8.4-1.2h1.2z" fill="currentColor"/>
  <circle cx="12" cy="13" r="3" fill="currentColor"/>
</svg>