<?xml version="1.0" encoding="UTF-8"?>
<svg width="24" height="24" viewBox="0 0 24 24" fill="none" xmlns="http://www.w3.org/2000/svg">
  <rect x="2" y="2" width="20" height="20" rx="2" fill="#3178C6"/>
  <path d="M12.5 7.5h3v1.5h-1.25v7h-1.5v-7H12.5v-1.5zm-3.75 3.75c0-.69.56-1.25 1.25-1.25s1.25.56 1.25 1.25v3.5c0 .69-.56 1.25-1.25 1.25s-1.25-.56-1.25-1.25v-3.5z" fill="white"/>
  <path d="M16.5 12.5h1.5v1.5c0 .83-.67 1.5-1.5 1.5h-1c-.83 0-1.5-.67-1.5-1.5v-1c0-.83.67-1.5 1.5-1.5h1c.28 0 .5.22.5.5s-.22.5-.5.5h-1c-.28 0-.5.22-.5.5v1c0 .28.22.5.5.5h1c.28 0 .5-.22.5-.5v-.5z" fill="white"/>
</svg>